# xmcd
#
# Track frame offsets:
#	215
#	14165
#	29857
#	45520
#	72942
#	88030
#	102275
#	123605
#	142540
#	164102
#	183435
#	201370
#	223727
#	232690
#	248842
#	262650
#
# Disc length: 3924 seconds
#
# Revision: 0
# Processed by: cddbd v1.4PL0 Copyright (c) Steve Scherf et al.
# Submitted via: audiograbber 1.80.04
#
DISCID=e50f5210
DTITLE=Johnny Copeland - When The Rain Starts Fallin'
DYEAR=1987
DGENRE=Blues
TTITLE0=Midnight Fantasy
TTITLE1=Make My Home Where I Hang My Hat
TTITLE2=Down On Bended Knee
TTITLE3=Jessanne
TTITLE4=Bozalimalamu
TTITLE5=Devil's Hand
TTITLE6=Third Party
TTITLE7=Conakry
TTITLE8=Old Man Blues
TTITLE9=When the Rain Starts Fallin'
TTITLE10=Same Thing
TTITLE11=I Wish I Was Single
TTITLE12=Rock'n' Roll Lilly
TTITLE13=North Carolina
TTITLE14=Big Time
TTITLE15=St. Louis Blues
EXTD=
EXTT0=
EXTT1=
EXTT2=
EXTT3=
EXTT4=
EXTT5=
EXTT6=
EXTT7=
EXTT8=
EXTT9=
EXTT10=
EXTT11=
EXTT12=
EXTT13=
EXTT14=
EXTT15=
PLAYORDER=
